# xmcd
#
# Track frame offsets: 
#        150
#        15768
#        35096
#        51924
#        73732
#        94156
#        113838
#        132375
#        148253
#        163620
#        180717
#        193179
#        205811
#        228126
#
# Disc length: 3203 seconds
#
# Revision: 32
# Processed by: cddbd v1.5.2PL0 Copyright (c) Steve Scherf et al.
# Submitted via: ExactAudioCopy v1.0b3
#
DISCID=c70c810e
DTITLE=竹内まりや - Expressions
DYEAR=2008
DGENRE=JPop
TTITLE0=戻っておいで・私の時間
TTITLE1=グッドバイ・サマーブリーズ
TTITLE2=ドリーム・オブ・ユー　～レモンライムの青い風～(シングル・ヴァージョン) 
TTITLE3=涙のワンサイデッド・ラヴ
TTITLE4=September
TTITLE5=不思議なピーチパイ
TTITLE6=象牙海岸
TTITLE7=五線紙
TTITLE8=Morning Glory
TTITLE9=僕の街へ
TTITLE10=ボーイ・ハント(WHERE THE BOYS ARE)
TTITLE11=恋のひとこと(SOMETHING STUPID)
TTITLE12=Never Cry Butterfly
TTITLE13=Let It Be Me(スタジオ・ヴァージョン)
EXTD=YEAR: 2008
EXTT0=
EXTT1=
EXTT2=
EXTT3=
EXTT4=
EXTT5=
EXTT6=
EXTT7=
EXTT8=
EXTT9=
EXTT10=
EXTT11=
EXTT12=
EXTT13=
PLAYORDER=
